<svg viewBox="0 0 2145 400" xmlns="http://www.w3.org/2000/svg"><g><g><g><g><g><line x1="63.984375" y1="340.42389882939744" x2="58.984375" y2="340.42389882939744" style="visibility: inherit;" fill="rgb(0, 0, 0)" stroke="rgb(204, 204, 204)" stroke-width="1px"></line><line x1="63.984375" y1="288.61395073776947" x2="58.984375" y2="288.61395073776947" style="visibility: inherit;" fill="rgb(0, 0, 0)" stroke="rgb(204, 204, 204)" stroke-width="1px"></line><line x1="63.984375" y1="236.8040026461414" x2="58.984375" y2="236.8040026461414" style="visibility: inherit;" fill="rgb(0, 0, 0)" stroke="rgb(204, 204, 204)" stroke-width="1px"></line><line x1="63.984375" y1="184.99405455451344" x2="58.984375" y2="184.99405455451344" style="visibility: inherit;" fill="rgb(0, 0, 0)" stroke="rgb(204, 204, 204)" stroke-width="1px"></line><line x1="63.984375" y1="133.1841064628854" x2="58.984375" y2="133.1841064628854" style="visibility: inherit;" fill="rgb(0, 0, 0)" stroke="rgb(204, 204, 204)" stroke-width="1px"></line><line x1="63.984375" y1="81.37415837125744" x2="58.984375" y2="81.37415837125744" style="visibility: inherit;" fill="rgb(0, 0, 0)" stroke="rgb(204, 204, 204)" stroke-width="1px"></line><line x1="63.984375" y1="29.564210279629386" x2="58.984375" y2="29.564210279629386" style="visibility: inherit;" fill="rgb(0, 0, 0)" stroke="rgb(204, 204, 204)" stroke-width="1px"></line></g><g transform="translate(53.984375, 0)"><text x="0" y="340.42389882939744" dx="0em" dy="0.3em" style="text-anchor: end; visibility: inherit; font-family: Roboto, sans-serif; font-size: 12px; font-weight: 200;" fill="rgb(33, 33, 33)" stroke="none" stroke-width="1px">8e-3</text><text x="0" y="288.61395073776947" dx="0em" dy="0.3em" style="text-anchor: end; visibility: inherit; font-family: Roboto, sans-serif; font-size: 12px; font-weight: 200;" fill="rgb(33, 33, 33)" stroke="none" stroke-width="1px">0.01</text><text x="0" y="236.8040026461414" dx="0em" dy="0.3em" style="text-anchor: end; visibility: inherit; font-family: Roboto, sans-serif; font-size: 12px; font-weight: 200;" fill="rgb(33, 33, 33)" stroke="none" stroke-width="1px">0.012</text><text x="0" y="184.99405455451344" dx="0em" dy="0.3em" style="text-anchor: end; visibility: inherit; font-family: Roboto, sans-serif; font-size: 12px; font-weight: 200;" fill="rgb(33, 33, 33)" stroke="none" stroke-width="1px">0.014</text><text x="0" y="133.1841064628854" dx="0em" dy="0.3em" style="text-anchor: end; visibility: inherit; font-family: Roboto, sans-serif; font-size: 12px; font-weight: 200;" fill="rgb(33, 33, 33)" stroke="none" stroke-width="1px">0.016</text><text x="0" y="81.37415837125744" dx="0em" dy="0.3em" style="text-anchor: end; visibility: inherit; font-family: Roboto, sans-serif; font-size: 12px; font-weight: 200;" fill="rgb(33, 33, 33)" stroke="none" stroke-width="1px">0.018</text><text x="0" y="29.564210279629386" dx="0em" dy="0.3em" style="text-anchor: end; visibility: inherit; font-family: Roboto, sans-serif; font-size: 12px; font-weight: 200;" fill="rgb(33, 33, 33)" stroke="none" stroke-width="1px">0.02</text></g><line x1="63.984375" y1="0" x2="63.984375" y2="376" fill="rgb(0, 0, 0)" stroke="rgb(204, 204, 204)" stroke-width="1px"></line></g></g><g transform="translate(63, 0)" clip-path="url(#clip_0)"><clipPath id="clip_0"><rect width="2081" height="376"></rect></clipPath><g><g><g><line x1="60.62340137868303" y1="0" x2="60.62340137868303" y2="376" fill="rgb(0, 0, 0)" stroke="rgb(66, 66, 66)" stroke-width="1px" opacity="0.25"></line><line x1="257.7627675024005" y1="0" x2="257.7627675024005" y2="376" fill="rgb(0, 0, 0)" stroke="rgb(66, 66, 66)" stroke-width="1px" opacity="0.25"></line><line x1="454.9021336261179" y1="0" x2="454.9021336261179" y2="376" fill="rgb(0, 0, 0)" stroke="rgb(66, 66, 66)" stroke-width="1px" opacity="0.25"></line><line x1="652.0414997498353" y1="0" x2="652.0414997498353" y2="376" fill="rgb(0, 0, 0)" stroke="rgb(66, 66, 66)" stroke-width="1px" opacity="0.25"></line><line x1="849.1808658735528" y1="0" x2="849.1808658735528" y2="376" fill="rgb(0, 0, 0)" stroke="rgb(66, 66, 66)" stroke-width="1px" opacity="0.25"></line><line x1="1046.3202319972702" y1="0" x2="1046.3202319972702" y2="376" fill="rgb(0, 0, 0)" stroke="rgb(66, 66, 66)" stroke-width="1px" opacity="0.25"></line><line x1="1243.4595981209877" y1="0" x2="1243.4595981209877" y2="376" fill="rgb(0, 0, 0)" stroke="rgb(66, 66, 66)" stroke-width="1px" opacity="0.25"></line><line x1="1440.598964244705" y1="0" x2="1440.598964244705" y2="376" fill="rgb(0, 0, 0)" stroke="rgb(66, 66, 66)" stroke-width="1px" opacity="0.25"></line><line x1="1637.7383303684223" y1="0" x2="1637.7383303684223" y2="376" fill="rgb(0, 0, 0)" stroke="rgb(66, 66, 66)" stroke-width="1px" opacity="0.25"></line><line x1="1834.8776964921399" y1="0" x2="1834.8776964921399" y2="376" fill="rgb(0, 0, 0)" stroke="rgb(66, 66, 66)" stroke-width="1px" opacity="0.25"></line><line x1="2032.0170626158572" y1="0" x2="2032.0170626158572" y2="376" fill="rgb(0, 0, 0)" stroke="rgb(66, 66, 66)" stroke-width="1px" opacity="0.25"></line></g><g><line x1="0" y1="340.42389882939744" x2="2081.015625" y2="340.42389882939744" fill="rgb(0, 0, 0)" stroke="rgb(66, 66, 66)" stroke-width="1px" opacity="0.25"></line><line x1="0" y1="288.61395073776947" x2="2081.015625" y2="288.61395073776947" fill="rgb(0, 0, 0)" stroke="rgb(66, 66, 66)" stroke-width="1px" opacity="0.25"></line><line x1="0" y1="236.8040026461414" x2="2081.015625" y2="236.8040026461414" fill="rgb(0, 0, 0)" stroke="rgb(66, 66, 66)" stroke-width="1px" opacity="0.25"></line><line x1="0" y1="184.99405455451344" x2="2081.015625" y2="184.99405455451344" fill="rgb(0, 0, 0)" stroke="rgb(66, 66, 66)" stroke-width="1px" opacity="0.25"></line><line x1="0" y1="133.1841064628854" x2="2081.015625" y2="133.1841064628854" fill="rgb(0, 0, 0)" stroke="rgb(66, 66, 66)" stroke-width="1px" opacity="0.25"></line><line x1="0" y1="81.37415837125744" x2="2081.015625" y2="81.37415837125744" fill="rgb(0, 0, 0)" stroke="rgb(66, 66, 66)" stroke-width="1px" opacity="0.25"></line><line x1="0" y1="29.564210279629386" x2="2081.015625" y2="29.564210279629386" fill="rgb(0, 0, 0)" stroke="rgb(66, 66, 66)" stroke-width="1px" opacity="0.25"></line></g></g></g><g><g><line x1="0" y1="547.6636911959096" x2="2081.015625" y2="547.6636911959096" fill="rgb(0, 0, 0)" stroke="rgb(153, 153, 153)" stroke-width="1.5px"></line></g></g><g><g><line x1="257.7627675024005" y1="0" x2="257.7627675024005" y2="376" fill="rgb(0, 0, 0)" stroke="rgb(153, 153, 153)" stroke-width="1.5px"></line></g></g><g><g><g><g><g><path stroke="rgb(255, 112, 67)" stroke-width="2px" d="M268.2111539069575,-16.483372476356664L268.4082932730812,19.219102776705025L268.60543263920493,-9.222308010942776L268.80257200532867,-2.7600487775833766L270.5768263004421,44.32655480744273L271.7596624971844,40.30858953116599L271.95680186330816,95.49988393069195L272.1539412294319,68.66898920529081L272.3510805955556,101.59091742285437L273.33677742617414,121.7880020894488L274.9138923551639,131.12724817776498L276.2938679180299,166.28852063521546L277.87098284701966,172.8647276703486L278.46240094539075,159.01728869923303L278.6595403115145,195.14070408894983L280.0395158743805,202.01954671643134L281.02521270499915,209.37454605352943L282.60232763398886,197.9362500630524L283.19374573236,171.83432348490675L283.39088509848375,188.04003682214523L285.1651393935972,144.78625362806596L285.5594181258446,181.32876047016998L285.75655749196835,182.61887049136118L285.9536968580921,195.60457291971414L287.33367242095807,179.65581224791956L288.3193692515767,186.0150457490543L288.7136479838241,175.29668815023427L288.91078734994784,177.49756863572838L289.6993448144427,143.81618263520284L290.6850416450613,162.10253938630618L290.88218101118497,175.4151435009973L291.4735991095562,154.19038700235848L292.6564353062985,194.37221169505295L292.8535746724222,208.28620842513357L293.24785340466957,200.66597128473228L293.8392715030408,179.51065922683242L294.2335502352882,189.49719554047962L294.4306896014119,201.26512491595062L294.82496833365934,225.2802435635418L295.2192470659068,237.1187690314141L295.41638643203055,209.07668160129842L296.79636199489653,191.23235167117454L298.3734769238863,211.35747941465235L298.57061629001004,201.93434475827198L298.76775565613366,223.19275594597121L299.55631312062854,262.8767704532851L301.5277067818658,243.5369684979005L301.72484614798947,248.35443994789944L302.1191248802369,229.53424930309137L302.90768234473177,233.45850563150904L303.4991004431029,203.77882230997548L303.8933791753504,192.1867672741851L304.48479727372154,180.6012167930926L306.85046966720614,195.89974464539335L308.0333058639484,212.51565641229783L308.6247239623196,225.59925717810884L309.019002694567,243.6914550436045L309.21614206069074,247.3761740955458L309.61042079293816,259.10704198430113L310.398978257433,255.8967314617312L311.1875357219279,222.34208615031653L311.58181445417534,221.67429630338094L312.56751128479397,182.72593617311014L315.327462410526,168.32665471760143L316.31315924114455,174.28027524483792L316.5102986072682,178.78629309925404L317.2988560717631,151.23689059001745L317.49599543788685,204.78704516164046L318.28455290238173,197.65053884763802L318.48169226850547,189.78827620724152L318.8759710007529,183.41939549548337L319.46738909912403,180.68940639764628L320.4530859297426,186.52217724353815L320.65022529586633,209.1193515783184L321.8330614926087,194.45476880627518L322.0302008587323,199.01087500930586L322.22734022485605,198.34390808784582L322.8187583232272,196.81286075228869L324.5930126183407,200.29911752128882L324.9872913505881,204.24744545005086L326.1701275473304,209.81572784700694L328.73293930693876,226.07365864978735L329.3243574053099,219.3947120540215L330.1129148698048,191.1468879600944L331.29575106654704,213.45182248379666L332.0843085310419,173.4697105315038L332.28144789716566,177.08694326809356L332.4785872632894,184.11673839521177L332.8728659955368,173.343677045465L333.8585628261554,220.1386817959481L334.844259656774,212.36268630945784L335.04139902289774,190.2572765449424L338.1956288808772,203.29055282551118L339.5756044437432,198.31584652589828L340.7584406404855,222.12349592183295L340.95558000660924,219.6408642183618L341.3498587388567,220.4994867410928L342.53269493559895,211.07340510867084L344.30694923071246,221.94595748133787L344.7012279629599,147.41515488726918L344.8983673290836,156.02160052116832L345.4897854274547,196.58266067803748L346.67262162419706,193.6889290948067L348.44687591931046,184.9741711404362L349.03829401768166,178.87199785535554L349.23543338380534,174.9352341554836L351.0096876789188,175.2907158611735L351.20682704504253,200.20767805382997L353.37536007240345,216.57962284868776L353.96677817077455,179.69445463141918L354.1639175368983,196.31794353114037L354.55819626914575,191.13928129483938L354.95247500139317,197.81275719442397L357.7124261271252,215.44345259299263L358.6981229577438,197.78971811856695L359.0924016899913,198.87672288694367L359.6838197883624,202.22793699227165L361.0637953512284,199.10251499605997L361.26093471735214,228.31591854734523L362.44377091409444,209.28193146983543L362.83804964634186,197.17288990127085L363.0351890124656,212.53777869067397L363.429467744713,186.6040977810915L363.62660711083674,204.89702523595514L364.2180252092079,215.9740718333734L364.61230394145537,205.22804426790134L365.5980007720739,214.8694993336677L365.7951401381976,188.54663815201033L367.5693944333111,187.57030788742048L367.96367316555853,200.32330740445377L368.75223063005336,213.08902315650903L368.9493699961771,218.92152463047782L369.9350668267957,183.91472001434414L370.7236242912906,3.7437061788021815L370.9207636574143,75.233429597872L371.51218175578543,142.1842858408027L371.90646048803285,145.94347031960956L372.3007392202803,145.40609111061602L372.497878586404,149.96411824253656L372.69501795252773,161.3542991847662L372.89215731865147,175.40903485699968L373.2864360508989,221.5594775597167L373.4835754170226,220.9045665117829L374.4692722476412,216.95658356215262L374.6664116137649,230.2667639177405L376.04638717663096,170.97399504544057L376.4406659088784,202.45239614113987L377.6235021056207,229.37841399669088L378.0177808378681,200.67979299235876L379.0034776684867,216.16559577180112L379.98917449910533,206.56214586122167L380.3834532313527,195.71024715874296L382.74912562483735,224.02747019753778L384.1291011877033,201.45165794931063L384.32624055382706,195.42696234450818L384.72051928607453,226.91102598904934L384.9176586521982,221.92540543842256L385.11479801832195,212.12659559438606L385.3119373844457,58.030211654191554L385.7062161166931,104.50660998703768L386.29763421506425,131.19426092863418L387.08619167955914,125.16574982873989L388.0718885101777,140.21258385337103L388.6633066085489,174.6669760085212L389.45186407304374,183.85429937963437L390.0432821714149,167.79313212919752L390.2404215375386,196.87828760536829L390.63470026978604,175.38332802077483L390.8318396359098,186.02827712106176L391.2261183681572,208.75136727043005L391.4232577342809,188.69390250955394L391.62039710040466,200.9628773059533L392.21181519877575,194.8705866838776L392.4089545648995,216.27525378375637L393.3946513955181,217.86558588351483L393.5917907616418,180.6043799394376L394.9717663245078,185.92456526993857L395.563184422879,190.792904504174L396.35174188737386,224.23373427748L396.943159985745,236.36980940848773L397.3374387179924,240.46637416973198L397.73171745023984,260.47097422799305L398.5202749147347,225.3769144839459L399.3088323792296,243.47652322933828L399.90025047760076,203.3280640728184L400.0973898437245,183.9872719762047L400.29452920984824,173.47845940642682L400.49166857597186,189.4718221996352L401.6745047727142,188.6423685245723L402.8573409694565,167.76499974556847L403.25161970170393,182.8277849502414L403.44875906782767,185.7861957349069L404.23731653232255,195.27164412192266L404.8287346306937,208.49173399350067L405.02587399681744,201.6107248310154L405.6172920951886,188.2245725278395L405.8144314613123,212.04677243309055L406.011570827436,244.4938767020461L406.4058495596834,209.9911787180356L406.80012829193083,151.0821838189317L407.9829644886732,202.8784103305113L408.57438258704434,207.6120671494828L408.7715219531681,221.33600864294564L409.36294005153917,180.3544902407518L409.5600794176629,201.89705468213637L409.7572187837866,219.4609399018201L410.15149751603406,198.49124846427912L410.3486368821578,212.5252666822921L411.5314730789001,181.72354739127002L412.3200305433949,163.6007369886694L412.51716990951866,198.63371156323637L412.91144864176607,201.9487236926081L413.30572737401354,191.51363252849686L413.70000610626096,199.42516616481223L413.8971454723847,215.84330270439867L414.09428483850843,210.8514756526209L414.29142420463216,228.43433288554803L414.48856357075584,208.86073477259495L415.079981669127,206.8009000033711L415.8685391336219,214.5754968633749L416.45995723199303,218.40399382954078L416.85423596424044,208.02253301083513L417.0513753303642,209.97345169570673L417.2485146964879,207.06275203652737L418.43135089323016,193.1022255208102L418.6284902593539,191.2776513229486L419.02276899160137,207.19594198398948L419.6141870899725,221.17280072310095L420.4027445544674,203.6570547392141L420.9941626528385,184.23407619287153L421.58558075120965,223.522427838812L421.7827201173334,195.97295422120317L422.1769988495808,236.403524514196L422.57127758182827,243.0861772210898L422.9655563140757,255.00566289689095L423.95125314469425,261.0116641746416L424.5426712430654,261.2325453566143L424.93694997531287,271.73681224098385L428.6825979316635,240.73187255191218L429.076876663911,238.29518318231445L429.27401603003466,224.328780166474L430.0625734945295,197.9662355219363L430.45685222677696,193.06704300907407L431.24540969127185,170.2524286817602L431.63968842351926,205.81907123710684L432.03396715576673,214.6101985410866L432.6253852541378,210.6378277038659L433.0196639863853,228.07515322261793L433.216803352509,237.70622836571567L433.61108208475645,217.3526389532539L434.39963954925133,216.8475237807754L435.1881970137462,66.26449679089129L436.5681725766122,122.37958300142343L436.76531194273593,151.6987179786309L436.9624513088596,191.03607697425235L437.15959067498335,202.07542882005856L438.1452875056019,198.136456334853L438.53956623784933,207.96679801449713L439.13098433622054,208.44165800255465L439.3281237023442,210.7931395842757L439.52526306846795,224.64233229738096L439.7224024345917,222.76292607232662L441.2995173635814,213.06267911740582L441.49665672970514,193.69188867901053L442.0880748280763,184.7412502610192L443.4680503909423,207.28123749169026L444.0594684893134,160.77971385498543L445.6365834183032,151.47603710481076L445.8337227844269,158.05173410827211L446.2280015166744,170.5672850393956L446.4251408827981,205.78811136679764L446.6222802489218,193.50474804156514L447.2136983472929,184.8476043180217L447.41083771341664,209.32823644887887L447.8051164456641,193.94086022338206L448.1993951779115,219.65785079959784L449.18509200853015,224.01036421219223L449.3822313746538,215.99629115060216L450.17078883914866,198.22394662305348L450.3679282052724,194.70519942004506L450.5650675713961,197.99012071871272L450.76220693751986,211.76322587030836L451.353625035891,223.82670387544096L451.55076440201475,248.18220409633045L451.7479037681384,224.70053545345326L452.33932186650964,242.43207392852366L452.5364612326333,210.81201592486352L454.11357616162303,186.72977081709433L454.9021336261179,230.22208070276346L455.2964123583654,222.13760821976786L455.69069109061275,204.51016372061704L455.8878304567365,231.75691180397604L456.47924855510763,200.96614253068273L457.2678060196025,199.48680508786398L457.46494538572625,209.6046216981949L457.66208475185,229.48103210921772L458.25350285022114,244.74574672807316L459.83061777921085,222.7430392705508L460.2248965114583,189.75525364673356L461.0134539759532,190.37130711379663L461.2105933420769,176.77463684451487L461.802011440448,169.62768305981598L462.19629017269546,214.738828032247L462.59056890494287,210.72674023005914L463.5762657355615,217.67091300640692L464.95624129842747,220.98262684106814L465.74479876292236,215.4346580753926L466.13907749516983,208.4668438065074L467.3219136919121,236.94233843309897L467.5190530580358,298.30438969252384L467.9133317902833,265.8348519311245L468.3076105225307,205.03540519618105L469.0961679870256,224.20601385008567L469.88472545152047,227.57305270147978L470.2790041837679,220.7322429866869L471.26470101438645,220.72321335025202L471.4618403805102,225.5019010828906L471.6589797466339,219.14306567501774L473.0389553094999,219.53686320144226L473.23609467562363,227.82879472860836L474.41893087236593,201.52136336484057L475.2074883368608,200.70869666857627L475.40462770298456,189.44852133660373L475.6017670691083,221.41365434114275L477.3760213642217,217.98156671734554L477.77030009646916,221.05969984789644L478.3617181948403,212.18279660613203L479.5445543915826,244.61810717288628L479.7416937577063,215.01225728786562L481.1216693205724,232.0357288955407L481.5159480528198,269.6475552920073L484.27589917855187,73.38968960158614L484.86731727692296,134.72764513504188L485.4587353752941,122.35406301030736L485.65587474141785,153.1508775437922L485.8530141075416,169.10906560558755L486.44443220591273,192.16544696454642L486.64157157203647,192.31399176361901L486.83871093816015,210.79159959880684L490.38721952838705,229.2951954287119L490.9786376267582,202.74027865289392L491.3729163590056,190.2450165933036L491.57005572512935,212.35298635626117L492.7528919218717,192.19202712899622L492.9500312879954,201.36390724682093L493.3443100202428,205.0827233072667L493.7385887524902,165.34284403786268L494.1328674847377,203.19818999642118L494.5271462169851,192.56594743886438L495.1185643153563,212.81602268449592L495.5128430476037,216.56701659359967L495.9071217798512,201.83484127211202L496.30140051209855,150.71679106378534L496.695679244346,17.988749032394487L497.08995797659344,86.63016649565878L499.0613516378307,132.41012993874483L499.8499091023255,125.28073663799145L500.6384665668204,173.75425634994932L500.8356059329441,199.08136922996414L501.0327452990678,220.53477263669683L501.4270240313153,252.42465317834436L502.0184421296864,228.324991777672L502.6098602280575,230.94122763348398L503.00413896030494,225.97652087129262L503.59555705867615,231.19293255783197L504.77839325541845,221.33911495242933L505.17267198766586,220.79952434666663L505.5669507199133,210.3615804782458L505.764090086037,192.00884960176748L506.35550818440817,196.498305860661L506.5526475505319,205.87403971945318L506.74978691665564,201.2098856800212L507.3412050150268,178.2991273159846L508.9183199440165,171.20076315194854L509.9040167746351,199.50096107592205L510.29829550688254,215.30203807621638L511.48113170362484,222.54318432860373L512.2696891681197,222.7887101513331L512.4668285342434,172.2915810176213L512.6639679003671,182.33950709209125L512.8611072664909,187.62155687994004L514.0439434632332,174.35399356166346L514.6353615616043,173.35344589381856L516.0153371244703,193.77081812688633L516.4096158567178,204.53585884829548L517.0010339550889,183.8219545158527L517.1981733212126,201.97890615645065L517.7895914195838,199.4922811207174L518.9724276163261,204.76759813676406L519.3667063485735,189.83582530994084L519.9581244469447,145.94587398364402L520.5495425453158,170.86841192118865L520.7466819114395,207.41958324252448L520.9438212775632,237.59678446414068L521.140960643687,220.11877273933962L521.3381000098107,208.62832880011334L522.520936206553,217.1233675107817L523.7037724032953,234.34308929625797L524.8866086000377,212.1768505934749L526.06944479678,213.8556933436154L527.0551416273985,189.80419276599636L527.8436990918934,195.61464150626892L529.2236746547594,193.580598965176L529.6179533870069,168.7348695235777L530.2093714853779,205.60521415949083L530.6036502176254,199.49465160476146L530.8007895837492,162.68976754720487L531.3922076821202,198.13530446976623L531.589347048244,190.615849715827L531.9836257804915,190.1798691291726L532.1807651466152,206.37607314031823L532.7721832449863,207.2296744078244L536.1235524690894,208.2822550398989L536.3206918352132,220.48558252057188L536.5178312013369,207.11536534356404L537.5035280319556,118.02407807464164L538.0949461303267,148.88036428272008L538.8835035948216,159.42865591196934L539.0806429609453,175.9428470061742L539.277782327069,177.1323818604521L540.0663397915639,198.06027646060667L540.2634791576876,213.25240932583364L540.4606185238114,216.90358092635674L540.8548972560587,195.76852698425577L541.6434547205536,236.3518947837197L542.037733452801,222.1881984903587L543.6148483817908,208.6767371742965L544.6005452124093,201.0633409302421L544.7976845785331,224.86950812076066L546.5719388736466,48.59004451043517L546.7690782397704,102.07020598515963L548.9376112671312,147.55145134429364L550.5147261961208,196.4878745581228L550.7118655622446,199.57049978303257L551.3032836606158,213.46248252470605L551.6975623928631,206.31942942521323L551.8947017589869,184.84206942246365L553.4718166879766,206.091660622775L553.6689560541004,168.18276539327397L553.866095420224,161.2022479376803L554.6546528847189,198.92766745793153L555.0489316169663,195.24230974510002L555.4432103492138,187.22667688537598L557.0203252782036,191.63099276279019L558.0060221088221,207.18622029487284L558.2031614749459,202.4412647540265L558.794579573317,192.7182977950076L560.174555136183,43.268708778054716L560.5688338684305,129.198356265758L562.5402275296676,171.78702775843647L563.5259243602862,190.01213719554403L563.72306372641,162.87817423623315L564.1173424586574,219.71567865010488L564.3144818247811,220.68704624623336L565.4973180215235,238.08835082990288L566.8772935843895,251.82044500364808L567.0744329505133,222.6669697541712L568.8486872456266,78.87042271180844L569.6372447101215,122.21853131541884L570.031523442369,167.84309375882773L570.8200809068637,188.1868142900599L572.5943352019773,195.7460533360011L572.9886139342248,216.45219456638364L573.5800320325958,211.21742839252218L573.9743107648433,227.94487365798796L574.171450130967,253.53061017345652L575.1571469615856,254.61126173700734L575.7485650599567,230.75114828237113L576.7342618905752,229.13649124827813L577.1285406228227,227.19000027731207L578.311376819565,227.75762551086257L578.5085161856888,162.62525237045213L578.7056555518125,204.38770029150862L579.4942130163074,144.2187936179474L580.4799098469259,179.4337263571296L581.0713279452972,188.12747035011816L581.4656066775445,231.9562533526093L582.0570247759157,244.13281512699285L582.6484428742867,203.8855092296582L583.4370003387817,228.41197149524788L584.8169759016477,192.6452213773683L585.0141152677714,196.99933010912218L585.2112546338951,199.44009623469265L586.5912301967612,207.59340986330503L586.9855089290087,194.8189180331467L587.379787661256,228.33421714874365L587.9712057596272,235.642548323044L588.1683451257509,238.20556003204283L589.3511813224932,219.24138118682336L589.548320688617,207.51762278459674L591.1254356176066,205.9487111072947L591.7168537159779,198.86942960529038L591.9139930821016,161.15288602932273L592.1111324482252,-1.4772856113135848L592.3082718143489,76.25002389204522L592.7025505465964,116.75773943909299L593.2939686449677,166.04026641996685L594.6739442078336,186.45537879543778L594.8710835739573,19.138054654160708L595.8567804045759,97.08251205148309L596.2510591368234,140.24906371114974L596.4481985029471,106.03515868425987L596.6453378690707,115.97537921593018L598.4195921641842,146.8321772535471L599.2081496286792,165.7143592114958L599.6024283609265,155.2984079996783L599.7995677270502,166.30274530938868L600.1938464592977,170.69672888294397L601.1795432899163,180.76188498736644L601.37668265604,194.60155348194988L601.7709613882874,211.05550386469733L601.9681007544111,232.62503060597857L602.1652401205348,253.30000060724728L602.7566582189061,214.64920125555494L603.1509369511534,206.32490028306316L603.5452156834009,209.0203400663424L605.3194699785143,229.90681487703708L605.9108880768855,230.93300629203472L607.685142371999,237.09929643909777L608.8679785687413,228.35582578158008L609.0651179348649,206.7989452289984L610.2479541316073,219.73641461199517L610.445093497731,226.3099725243376L610.6422328638547,234.70654939077568L612.2193477928444,234.70345894862652L613.4021839895868,227.37104073399607L613.5993233557106,214.50830580506445L615.1764382847002,205.56715425846932L615.3735776508239,208.00365578515255L615.964995749195,197.55717322258434L616.5564138475663,208.14358982823717L617.344971312061,201.5389505735587L617.7392500443085,177.50466417925838L618.5278075088033,170.3201600173331L619.7106437055457,191.7087384985314L620.4992011700406,181.7824887102418L620.6963405361643,186.62401905989665L621.2877586345355,226.89881698313002L622.273455465154,229.2894070830962L623.0620129296489,232.9811721494657L623.8505703941438,229.57215878868934L624.2448491263913,222.98907671916024L625.6248246892573,221.96614150187L626.0191034215047,231.7821750814564L626.2162427876283,237.85337630605594L627.3990789843707,237.6699243500947L627.5962183504945,239.87470309497195L627.7933577166181,224.1289491182074L628.1876364488655,206.20338978694656L628.581915181113,199.65035910952432L630.9475875745976,196.13728890069945L632.721841869711,187.62346402348237L633.510399334206,219.41133219174142L634.4960961648245,210.79973272322513L634.6932355309482,195.85580553701234L635.6789323615668,210.6382776843005L635.8760717276905,205.5914860626936L636.0732110938143,236.32513892920835L636.8617685583092,237.53118653904806L637.0589079244328,50.91193599216664L638.2417441211752,112.59180453341665L639.03030158567,152.10850910767564L639.2274409517937,170.70091007413362L639.4245803179175,186.52681358980044L639.818859050165,189.1698317276833L640.0159984162887,202.17857463864297L641.0016952469072,219.4285068721446L641.5931133452784,222.00568440228213L641.9873920775258,212.53298414471442L642.5788101758969,180.79062659438688L643.1702282742681,207.8136900304338L643.7616463726392,215.48395313956107L644.1559251048867,161.25198923822703L645.5359006677527,202.58666328437366L645.9301794000002,204.9134125272424L646.3244581322476,201.67173314082095L648.2958517934848,193.57458569100658L648.4929911596084,194.2847835777831L648.6901305257321,198.6883925646097L651.4500816514642,225.19611710798088L652.2386391159591,231.27869787104376L653.027196580454,240.8580419711111L653.2243359465776,245.6384512667174L653.8157540449489,241.32003898625558L654.0128934110726,205.537329540168L654.6043115094436,196.5622113032314L654.9985902416911,189.08092888208523L655.3928689739386,195.67231085337409L656.3785658045572,204.20495956538454L656.9699839029283,201.9093705319296L657.3642626351757,231.11669372920977L657.9556807335468,238.7764177176029L658.5470988319181,220.0051144866294L659.1385169302891,216.7590753286036L659.5327956625366,223.65210330997536L660.1242137609079,225.419954627253L660.7156318592789,210.86469280871083L660.9127712254026,234.32326662731253L661.5041893237739,213.8498317459877L662.0956074221449,183.55959831916542L663.8698617172583,211.3075596469586L664.2641404495058,209.94213485037238L665.2498372801244,231.69884290445037L666.2355341107431,209.5032867881452L666.4326734768667,231.26568782176318L666.6298128429904,195.70016294561444L667.0240915752379,169.34822210258994L667.2212309413616,136.4258204060691L667.615509673609,171.91070173521265L668.0097884058565,198.34272197379022L668.6012065042277,202.82285330114289L668.7983458703513,225.20815557656556L669.5869033348463,236.59624101592647L670.5726001654648,241.47863976020534L670.9668788977123,230.7036486864486L672.3468544605782,204.9589435153912L672.7411331928257,191.24825785159726L672.9382725589494,213.39776659457027L673.5296906573205,223.7599401932164L673.923969389568,179.61999428537507L674.7125268540628,185.05415078970495L675.303944952434,198.56841692980896L675.6982236846815,198.85972596876147L676.0925024169288,198.293364139693L676.2896417830526,194.94572444276673L676.4867811491763,186.02470725018816L677.2753386136712,203.64086791046387L678.0638960781661,190.2381564264608L678.2610354442897,209.75361962719506L678.4581748104135,201.63535567673725L679.2467322749084,197.23873154802408L679.443871641032,217.36447730677736L679.8381503732795,215.7373473098363L680.0352897394033,200.18455572430997L680.4295684716508,174.7477509774751L680.6267078377743,213.11384807050464L680.823847203898,204.21476465457732L681.2181259361455,226.18597323472082L681.4152653022693,238.49723273847974L681.8095440345168,245.87657696821066L682.7952408651353,228.04135528817534L682.9923802312591,245.651429700648L684.1752164280012,232.9009817863723L684.372355794125,205.20947370912168L684.5694951602487,244.45051392019394L685.3580526247436,207.96591633546768L685.752331356991,208.56033017823776L686.1466100892385,231.6238774305271L686.9351675537333,228.19759815902367L688.9065612149706,208.7291935227566L689.3008399472179,167.51528559939737L689.6951186794654,183.14117349531364L689.8922580455891,168.84631585806414L690.680815510084,190.9183106549457L691.0750942423315,172.86471193066888L691.2722336084552,26.651507451878835L691.4693729745788,129.04391320590858L692.06079107295,149.92439662752545L692.8493485374449,183.3925670527643L693.0464879035685,201.33772997545992L693.6379060019398,200.16371024684977L694.2293241003109,217.60443601754355L696.200717761548,222.92716241615796L696.3978571276717,227.07008436116007L696.989275226043,218.4065123606238L697.1864145921667,167.3733525785772L697.5806933244141,140.5048970521158L698.1721114227852,177.93109510231136L698.5663901550327,201.38798034593296L698.7635295211564,207.14088071533695L699.1578082534039,226.40067420881198L699.3549476195275,212.87056867793754L699.5520869856513,206.5071714795643L699.749226351775,198.75178838195345L700.1435050840224,213.09663309426298L700.5377838162699,238.71719272411704L700.7349231823937,211.98865882718087L701.5234806468884,215.69199555775597L701.7206200130122,219.49078837566688L702.1148987452597,200.10509463217446L702.7063168436307,151.33664243444673L703.6920136742494,178.49108234882488L706.0576860677339,179.90830331827257L706.8462435322289,231.31105474344602L707.4376616305999,250.91320751529906L708.4233584612186,244.71279551552988L708.817637193466,217.1374887504695L709.4090552918371,209.80723553010264L710.5918914885794,235.61515749378108L710.7890308547031,227.48201822757L711.1833095869506,222.8522718655418L711.7747276853217,213.58444460779285L712.3661457836929,213.0499618701067L712.5632851498166,218.42128312623342L712.7604245159404,240.6761196998557L714.5346788110538,220.8978865918345L714.7318181771775,193.51811711074427L714.9289575433012,169.17356752061127L715.126096909425,210.7884154684912L715.5203756416723,217.8265017098565L715.9146543739198,201.0612985109985L716.506072472291,209.32951289910164L717.4917693029096,208.02712962613595L717.8860480351569,202.22751514062813L718.0831874012807,239.57816620894783L718.2803267674044,237.3929676550112L718.4774661335281,225.3574477798439L720.0545810625179,224.72061156996168L721.8288353576313,232.4905119981609L722.8145321882499,210.35627334311582L724.3916471172396,213.87259738121833L724.5887864833634,226.59253234546748L725.1802045817345,229.10069531881567L725.9687620462294,222.00890259723218L727.3487376090953,236.69508024580446L727.9401557074666,257.32685026594345L728.5315738058378,246.8544896171736L728.7287131719614,229.74229424705445L728.9258525380851,254.58188712764027L729.3201312703326,258.6568638751345L730.8972461993224,216.03453837089182L731.2915249315698,231.4780848865013L731.6858036638173,218.21642443524593L732.0800823960647,215.18991026134916L734.0514760573018,192.2099243408793L735.6285909862916,168.66596445564696L735.8257303524152,189.17339963102393L736.022869718539,201.49577179485084L736.8114271830339,188.74419514912015L737.9942633797763,210.84907610172297L739.5713783087659,218.60466296494582L740.7542145055082,220.536151798294L740.951353871632,226.57241164206778L741.1484932377556,213.6085272841478L741.3456326038794,224.860387621211L741.7399113361267,219.47830567829743L742.1341900683742,219.53975031338246L742.7256081667454,201.2752209408509L743.9084443634878,207.71802318191035L744.3027230957351,227.33555413173536L745.6826986586012,243.46772428223926L746.471256123096,240.32826701888314L746.8655348553435,204.12329864579846L747.6540923198382,215.28008023102302L747.851231685962,221.05142085287014L748.2455104182095,225.3937199655404L749.231207248828,226.2166402910246L749.8226253471993,201.32486384482777L750.2169040794466,191.7649684254301L750.8083221778178,231.39403687292736L751.0054615439415,199.09133584014003L751.2026009100653,213.72652123932787L753.1739945713024,212.83751370263101L753.3711339374262,190.37912058530955L753.7654126696735,200.00193883720613L753.9625520357972,185.4354610678415L754.159691401921,179.3982913867868L754.3568307680447,172.7162866709979L755.1453882325395,211.146410761654L755.539666964787,181.8510785491139L756.1310850631581,194.76158907341542L756.5253637954056,161.55333346358825L756.919642527653,209.60208273250694L757.3139212599004,205.75291468836224L759.0881755550139,216.28255476497597L759.8767330195087,229.1267579913879L760.2710117517562,225.1033894119529L760.6652904840037,210.7877786355279L761.0595692162511,212.21934064537066L761.6509873146223,212.12837412273248L762.2424054129934,231.71296115338623L763.4252416097357,247.9105968864179L763.6223809758594,215.26458375406185L764.4109384403544,192.66174180263855L765.0023565387254,215.59350971921486L765.5937746370967,193.71574008100882L765.9880533693441,191.3752413119272L766.1851927354677,14.373394020734274L766.9737501999626,75.85746913325612L767.7623076644575,108.77907066395356L768.3537257628286,169.20372230543234L768.5508651289524,194.06893288844938L768.7480044950761,206.78191091683018L768.9451438611999,214.99643930870695L769.5365619595709,214.74577229469884L770.3251194240659,176.42814145377025L771.5079556208082,216.97055829649238L771.7050949869318,194.60496674383273L772.296513085303,197.5847300178904L773.2822099159216,197.6914189647072L773.8736280142926,197.65414220829715L774.0707673804164,187.4292666019056L774.4650461126639,198.70018446162163L774.8593248449114,196.78822421035267L775.2536035771589,202.20637747078797L775.4507429432824,224.22311785882746L776.0421610416537,219.43687155698964L776.2393004077774,219.38765956226223L776.6335791400248,207.33610630814024L777.2249972383959,219.5757302999736L777.4221366045197,240.67890343662035L777.8164153367671,219.30361975030596L778.9992515335094,217.73894679392092L779.5906696318806,223.91268615267145L780.1820877302516,244.499028933082L780.3792270963754,252.29216137611257L781.1677845608704,238.3152173661497L782.3506207576125,251.68542855554526L784.9134325172209,212.39024418257793L785.7019899817158,181.85993708549051L786.0962687139632,173.92028485223813L787.0819655445819,203.9360635784497L787.673383642953,179.67913825294994L788.0676623752004,167.59053291743345L788.8562198396953,162.45334512183945L789.8419166703138,169.65321532666601L790.6304741348088,177.4552942906087L791.4190315993036,148.11479466843107L792.0104496976747,168.80125006972162L794.9675401895305,181.64360633962136L796.9389338507677,202.95957176990964L797.1360732168913,198.7867609105748L797.3332125830151,181.36378020335866L797.9246306813862,179.47641877181354L798.12177004751,196.17724005201114L799.1074668781285,164.32476592540647L800.2903030748708,193.2927389606407L800.4874424409945,202.00395279636552L800.6845818071183,233.20665705039818L800.881721173242,215.45024708314662L801.0788605393658,246.83921424286973L801.2759999054895,207.37765739804328L801.4731392716133,190.4970435960213L803.0502542006029,204.2997024733821L807.5844596214484,218.34557055564989L807.7815989875722,226.73109306070563L807.9787383536958,237.59523544044112L809.3587139165619,216.0057113194992L810.3444107471805,194.66715093099734L810.9358288455517,206.4750444605838L811.5272469439227,225.63677505684385L811.7243863100465,219.25610644032872L811.9215256761702,194.7373444731392L812.710083140665,181.8727791968215L814.2871980696548,205.67503267729978L814.4843374357785,220.0533515311144L815.0757555341497,205.93885702499517L815.4700342663972,225.1779503537893L815.6671736325209,202.299439834205L816.0614523647682,188.35307746027428L818.427124758253,159.9174629306848L818.8214034905004,161.91160769587128L819.4128215888715,150.1083717471874L819.8071003211189,198.44262786561865L820.7927971517374,205.89803090824958L821.3842152501087,218.6202416534842L821.9756333484797,188.71816550080626L823.7498876435932,212.8660546525511L823.947027009717,236.00953518396483L825.1298632064593,241.24643506683952L825.5241419387067,211.56069269515967L825.7212813048304,206.24498994828852L826.9041175015727,198.12138046704715L827.4955355999439,193.15271850361626L827.6926749660677,210.71797603132282L828.6783717966862,208.26914257164782L829.0726505289337,224.16739311135126L829.4669292611811,189.95518587822525L830.0583473595522,222.08266808794232L830.255486725676,245.89127286244255L831.8326016546656,222.09196653780805L832.8182984852843,219.2933713060318L833.2125772175317,208.26093584117447L833.4097165836554,203.31955546632614L833.6068559497792,198.41600955357637L834.3954134142739,200.73232176198763L835.7753889771401,219.0412656148166L836.5639464416349,205.4934226253325L837.1553645400061,200.3478345227127L837.3525039061298,227.9507717619667L837.7467826383771,214.23666884334915L839.3238975673669,209.50209876472235L840.3095943979855,209.23066719267132L842.6752667914701,181.46007309605443L843.6609636220887,212.65977095523226L844.0552423543361,196.8940080147105L844.2523817204599,236.43673609088208L844.843799818831,222.84375590810498L845.0409391849548,223.47612134424486L846.8151934800683,205.9401586463253L847.9980296768106,179.46476879609432L848.7865871413054,210.49168547455994L849.772283971924,216.78749765524674L850.1665627041714,233.56161965790284L850.5608414364189,228.90752604875047L850.9551201686663,219.948724742959L851.3493989009138,215.50111327045477L851.9408169992848,220.32678035454038L852.1379563654085,226.6932202372519L852.3350957315323,216.9550304289116L852.9265138299035,188.33048524932565L853.1236531960271,200.37672381443778L853.3207925621508,200.93043594528376L853.5179319282746,225.6575250378507L854.1093500266458,192.0023666343793L854.3064893927695,201.86835128312774L854.5036287588932,235.66125499122066L855.0950468572643,225.3337919174122L855.2921862233881,261.66187292728716L855.6864649556355,248.5420392253477L855.8836043217592,234.60693685651532L856.672161786254,218.73311278631672L857.0664405185015,27.549303412205635L857.2635798846253,116.4926950585954L857.460719250749,126.75237059910391L858.2492767152438,155.39520118514594L858.6435554474913,185.3675425094905L859.0378341797388,156.8908965394814L859.6292522781098,193.5158503417955L861.4035065732232,205.8484968689408L861.9949246715945,219.15008740549104L862.3892034038419,219.2230005438875L862.7834821360893,218.58118721841845L863.1777608683368,211.54183214164746L863.5720396005842,204.0287605401725L864.1634576989553,219.6195958200368L865.3462938956977,217.32696791586238L866.1348513601926,229.6947317244349L866.5291300924399,206.48624455707883L867.1205481908111,177.87099609059604L867.909105655306,189.13287323701127L868.6976631198008,179.85033773664026L869.4862205842957,188.43487608988863L870.2747780487905,186.47182072383532L871.4576142455329,209.53259077253992L872.0490323439041,229.0907095905987L872.8375898083989,205.34439141629448L873.2318685406464,212.23659064213942L874.0204260051412,216.32373560623776L874.217565371265,192.86119128042532L875.597540934131,211.61648796802535L876.1889590325021,194.78450847208583L876.3860983986258,51.18123094710221L877.3717952292444,122.56987686494449L877.5689345953682,142.4373815533788L877.7660739614919,176.4693950202734L878.1603526937392,167.10683600653354L878.7517707921104,205.9871640120708L879.737467622729,183.31111561102787L880.3288857211002,188.6529160790281L880.526025087224,211.41193137003427L880.9203038194713,226.3285261192066L882.1031400162136,207.69421747831763L884.0745336774509,209.21319046434198L885.4545092403168,191.99858295211806L886.045927338688,195.91405101396825L886.2430667048117,213.1795379291417L887.6230422676776,180.31697518408188L887.8201816338014,210.62317134047703L888.0173209999251,204.73319102964544L888.2144603660489,155.58097183276033L888.4115997321726,188.01619899224502L889.2001571966674,186.892587974128L889.7915752950386,202.74662271537795L891.9601083223995,217.22040679250264L894.3257807158841,220.41709945717045L894.5229200820079,206.14228283557998L894.7200594481316,186.99936870217726L895.1143381803789,175.99721880435266L895.5086169126264,199.88116822664207L896.494313743245,190.649849102241L897.0857318416162,175.00551484058224L897.2828712077398,203.94981493435793L897.6771499399873,199.1752384466917L897.8742893061111,207.9471220401087L899.2542648689771,185.12262419681787L899.6485436012246,223.2557352312551L900.0428223334719,209.13011953759332L901.6199372624616,197.21891498362697L901.8170766285854,210.61617646617077L902.8027734592039,190.054896129462L902.9999128253277,182.56214284484193L904.18274902207,179.69330909317537L904.5770277543173,197.3888316106801L904.9713064865648,207.57072111037456L905.3655852188123,201.2539035003259L906.1541426833071,184.74016747803475L906.7455607816784,189.22129977078077L907.1398395139257,188.71934022467454" style="fill: none;" fill="none"></path></g></g></g></g><g opacity="0.2"><g><g><g><path stroke="rgb(255, 112, 67)" stroke-width="2px" d="M266.43689961184407,-47.37873287967122L266.6340389779678,42.372655334024714L267.02831771021516,71.23570864623109L268.2111539069575,13.20387878018694L268.4082932730812,72.6562408800742L268.60543263920493,-51.828704507862426L268.80257200532867,6.925743929310612L270.5768263004421,114.92325106401132L271.7596624971844,34.28334188499842L271.95680186330816,178.2728124663117L272.1539412294319,28.426734533947293L272.3510805955556,150.97080055455692L273.33677742617414,152.08252143321678L274.9138923551639,145.13580999836861L276.2938679180299,219.02973512340253L277.87098284701966,182.72896032160662L278.46240094539075,138.24622866422942L278.6595403115145,249.32567312365936L280.0395158743805,212.3377930565806L281.02521270499915,220.40703376751998L282.60232763398886,180.77881661362412L283.19374573236,132.6814480438265L283.39088509848375,212.348601454012L285.1651393935972,79.90558744300198L285.5594181258446,236.14251637088464L285.75655749196835,184.55403543073984L285.9536968580921,215.08312600416008L287.33367242095807,155.7326716514833L288.3193692515767,195.55389590236874L288.7136479838241,159.21915185150266L288.91078734994784,180.79888935171104L289.6993448144427,93.29410374697358L290.6850416450613,189.53207447629453L290.88218101118497,195.38404965701793L291.4735991095562,122.3532522697213L292.6564353062985,254.64494871669152L292.8535746724222,229.1572035166386L293.24785340466957,189.23561557531858L293.8392715030408,147.77769114196167L294.2335502352882,204.47700001038993L294.4306896014119,218.91701897876064L294.82496833365934,261.3029215344433L295.2192470659068,254.876557233079L295.41638643203055,167.01355045632891L296.79636199489653,164.46585677606677L298.3734769238863,241.54517102981632L298.57061629001004,187.79964277371627L298.76775565613366,255.0803727275L299.55631312062854,322.40279221423344L301.5277067818658,214.52726556483012L301.72484614798947,255.58064712289692L302.1191248802369,201.30396333588158L302.90768234473177,239.34489012413536L303.4991004431029,159.2592973276765L303.8933791753504,174.7986847204997L304.48479727372154,163.22289107145403L306.85046966720614,218.84753642384436L308.0333058639484,237.43952406265447L308.6247239623196,245.22465832682525L309.019002694567,270.82975184184784L309.21614206069074,252.90325267345779L309.61042079293816,276.7033438174341L310.398978257433,251.08126567787636L311.1875357219279,172.01011818319458L311.58181445417534,220.67261153297764L312.56751128479397,124.30339597770381L315.327462410526,146.72773253433851L316.31315924114455,183.21070603569254L316.5102986072682,185.54531988087825L317.2988560717631,109.9127868261624L317.49599543788685,285.11227701907507L318.28455290238173,186.94577937663445L318.48169226850547,177.99488224664677L318.8759710007529,173.86607442784614L319.46738909912403,176.59442275089052L320.4530859297426,195.27133351237597L320.65022529586633,243.0151130804888L321.8330614926087,172.45789464821033L322.0302008587323,205.84503431385193L322.22734022485605,197.34345770565588L322.8187583232272,194.51628974895283L324.5930126183407,205.52850267478902L324.9872913505881,210.1699373431939L326.1701275473304,218.16815144244117L328.73293930693876,250.46055485395792L329.3243574053099,209.37629216037283L330.1129148698048,148.77515181920376L331.29575106654704,246.9092242693501L332.0843085310419,113.4965426030645L332.28144789716566,182.51279237297828L332.4785872632894,194.66143108588898L332.8728659955368,157.18408502084475L333.8585628261554,290.3311889216727L334.844259656774,200.69869307972235L335.04139902289774,157.09916189816937L338.1956288808772,222.8404672463643L339.5756044437432,190.853787076479L340.7584406404855,257.83497001573494L340.95558000660924,215.91691666315495L341.3498587388567,221.7874205251893L342.53269493559895,196.934282660038L344.30694923071246,238.25478604033836L344.7012279629599,35.61895099616612L344.8983673290836,168.93126897201716L345.4897854274547,257.42425091334115L346.67262162419706,189.34833171996044L348.44687591931046,171.90203420888045L349.03829401768166,169.71873792773457L349.23543338380534,169.03008860567584L351.0096876789188,175.8239384197082L351.20682704504253,237.58312134281468L353.37536007240345,241.13754004097436L353.96677817077455,124.36670230551636L354.1639175368983,221.25317688072224L354.55819626914575,183.37128794038784L354.95247500139317,207.8229710438009L357.7124261271252,241.8894956908457L358.6981229577438,171.3091164069285L359.0924016899913,200.5072300395087L359.6838197883624,207.25475815026363L361.0637953512284,194.41438200174235L361.26093471735214,272.1360238742732L362.44377091409444,180.7309508535707L362.83804964634186,179.00932754842387L363.0351890124656,235.58511187477876L363.429467744713,147.7035764167177L363.62660711083674,232.33641641825056L364.2180252092079,232.58964172950084L364.61230394145537,189.1090029196934L365.5980007720739,229.33168193231717L365.7951401381976,149.06234637952417L367.5693944333111,186.10581249053593L367.96367316555853,219.45280668000362L368.75223063005336,232.2375967845919L368.9493699961771,227.67027684143105L369.9350668267957,131.4045130901436L370.7236242912906,-266.51281457451074L370.9207636574143,182.46801472647672L371.51218175578543,242.61057020519868L371.90646048803285,151.58224703781985L372.3007392202803,144.60002229712563L372.497878586404,156.80115894041748L372.69501795252773,178.43957059811066L372.89215731865147,196.49113836535L373.2864360508989,290.7851416137921L373.4835754170226,219.92219993988223L374.4692722476412,211.03460913770715L374.6664116137649,250.2320344511223L376.04638717663096,82.03484173699076L376.4406659088784,249.66999778468875L377.6235021056207,269.7674407800173L378.0177808378681,157.63186148586055L379.0034776684867,239.3942999409647L379.98917449910533,192.1569709953525L380.3834532313527,179.43239910502496L382.74912562483735,266.5033047557299L384.1291011877033,167.58793957696986L384.32624055382706,186.38991893730451L384.72051928607453,274.13712145586095L384.9176586521982,214.44697461248248L385.11479801832195,197.42838082833129L385.3119373844457,-173.1143642561002L385.7062161166931,174.22120748630695L386.29763421506425,171.22573734102903L387.08619167955914,116.12298317889841L388.0718885101777,162.78283489031782L388.6633066085489,226.34856424124652L389.45186407304374,197.6352844363041L390.0432821714149,143.70138125354225L390.2404215375386,240.50602081962452L390.63470026978604,143.14088864388458L390.8318396359098,201.99570077149218L391.2261183681572,242.83600249448247L391.4232577342809,158.60770536823975L391.62039710040466,219.36633950055233L392.21181519877575,185.7321507507641L392.4089545648995,248.3822544335744L393.3946513955181,220.25108403315244L393.5917907616418,124.71257102332167L394.9717663245078,193.90484326568995L395.563184422879,198.0954133555272L396.35174188737386,274.3949789374389L396.943159985745,254.57392210499938L397.3374387179924,246.61122131159823L397.73171745023984,290.4778743153848L398.5202749147347,172.73582486787532L399.3088323792296,270.6259363474269L399.90025047760076,143.10537533803847L400.0973898437245,154.97608383128423L400.29452920984824,157.71524055176002L400.49166857597186,213.46186638944775L401.6745047727142,187.39818801197796L402.8573409694565,136.44894657706266L403.25161970170393,205.42196275725078L403.44875906782767,190.2238119119051L404.23731653232255,209.49981670244614L404.8287346306937,228.3218688008678L405.02587399681744,191.28921108728747L405.6172920951886,168.14534407307568L405.8144314613123,247.78007229096696L406.011570827436,293.1645331054794L406.4058495596834,158.23713174201978L406.80012829193083,62.718691470275886L407.9829644886732,280.5727500978807L408.57438258704434,214.71255237794014L408.7715219531681,241.9219208831399L409.36294005153917,118.88221263746111L409.5600794176629,234.21090134421317L409.7572187837866,245.80676773134573L410.15149751603406,167.03671130796766L410.3486368821578,233.57629400931148L411.5314730789001,135.52096845473687L412.3200305433949,136.4165213847684L412.51716990951866,251.18317342508686L412.91144864176607,206.92124188666563L413.30572737401354,175.8609957823302L413.70000610626096,211.29246661928514L413.8971454723847,240.47050751377847L414.09428483850843,203.36373507495415L414.29142420463216,254.80861873493868L414.48856357075584,179.5003376031653L415.079981669127,203.71114784953537L415.8685391336219,226.23739215338054L416.45995723199303,224.14673927878968L416.85423596424044,192.4503417827766L417.0513753303642,212.8998297230142L417.2485146964879,202.69670254775824L418.43135089323016,172.16143574723438L418.6284902593539,188.54079002615617L419.02276899160137,231.0733779755509L419.6141870899725,242.13808883176821L420.4027445544674,177.38343576338386L420.9941626528385,155.09960837335754L421.58558075120965,282.45495530772286L421.7827201173334,154.6487437947899L422.1769988495808,297.0493799536852L422.57127758182827,253.1101562814306L422.9655563140757,272.8848914105927L423.95125314469425,270.0206660912676L424.5426712430654,261.56386712957317L424.93694997531287,287.49321256753825L428.6825979316635,194.22446301830468L429.076876663911,234.6401491279179L429.27401603003466,203.3791756427133L430.0625734945295,158.42241855512978L430.45685222677696,185.7182542397809L431.24540969127185,136.0305071907893L431.63968842351926,259.16903507012677L432.03396715576673,227.79688949705618L432.6253852541378,204.67927144803497L433.0196639863853,254.23114150074593L433.216803352509,252.15284108036235L433.61108208475645,186.82225483456114L434.39963954925133,216.0898510220576L435.1881970137462,-159.6100436939348L436.5681725766122,206.55221231722166L436.76531194273593,195.67742044444205L436.9624513088596,250.04211546768457L437.15959067498335,218.6344565887679L438.1452875056019,192.22799760704464L438.53956623784933,222.71231053396326L439.13098433622054,209.15394798464084L439.3281237023442,214.32036195685734L439.52526306846795,245.41612136703884L439.7224024345917,219.94381673474507L441.2995173635814,198.51230868502464L441.49665672970514,164.63570302141758L442.0880748280763,171.31529263403218L443.4680503909423,241.0912183376969L444.0594684893134,91.02742839992821L445.6365834183032,137.52052197954868L445.8337227844269,167.91527961346412L446.2280015166744,189.34061143608088L446.4251408827981,258.6193508579005L446.6222802489218,175.07970305371646L447.2136983472929,171.86188873270663L447.41083771341664,246.04918464516462L447.8051164456641,170.8597958851368L448.1993951779115,258.23333666392136L449.18509200853015,230.5391343310838L449.3822313746538,203.97518155821706L450.17078883914866,171.56542983173065L450.3679282052724,189.42707861553222L450.5650675713961,202.9175026667143L450.76220693751986,232.42288359770188L451.353625035891,241.9219208831399L451.55076440201475,284.71545442766455L451.7479037681384,189.47803248913746L452.33932186650964,269.02938164112925L452.5364612326333,163.38192891937345L454.11357616162303,150.60640315544063L454.9021336261179,295.4605455312672L455.2964123583654,210.01089949527451L455.69069109061275,178.06899697189075L455.8878304567365,272.6270339290146L456.47924855510763,154.77998862074284L457.2678060196025,197.26779892363598L457.46494538572625,224.78134661369134L457.66208475185,259.2956477257519L458.25350285022114,267.64281865635627L459.83061777921085,189.73897808426733L460.2248965114583,140.2735752110077L461.0134539759532,191.2953873143911L461.2105933420769,156.37963144059228L461.802011440448,158.90725238276752L462.19629017269546,282.40554549089353L462.59056890494287,204.70860852677737L463.5762657355615,228.08717217092845L464.95624129842747,225.9501975930601L465.74479876292236,207.11270492687927L466.13907749516983,198.01512240317953L467.3219136919121,279.6555803729863L467.5190530580358,390.34746658166125L467.9133317902833,217.13054528902526L468.3076105225307,113.83623509376615L469.0961679870256,252.9619268309426L469.88472545152047,232.623610978571L470.2790041837679,210.47102841449762L471.26470101438645,220.7096688955996L471.4618403805102,232.6699326818485L471.6589797466339,209.60481256320847L473.0389553094999,220.12755949107913L473.23609467562363,240.2666920193575L474.41893087236593,162.06021631918892L475.2074883368608,199.48969662417974L475.40462770298456,172.55825833864495L475.6017670691083,269.3613538479513L477.3760213642217,212.8334352816498L477.77030009646916,225.67689954372287L478.3617181948403,198.86744174348541L479.5445543915826,293.27107302301766L479.7416937577063,170.6034824603347L481.1216693205724,257.5709363070532L481.5159480528198,326.06529488670725L484.27589917855187,-220.99710893404546L484.86731727692296,226.73457843522564L485.4587353752941,103.79368982320548L485.65587474141785,199.3460993440195L485.8530141075416,193.04634769828036L486.44443220591273,226.75001900298483L486.64157157203647,192.53680896222795L486.83871093816015,238.50801135158864L490.38721952838705,257.0505891735694L490.9786376267582,162.90790348916707L491.3729163590056,171.50212350391809L491.57005572512935,245.51494100069752L492.7528919218717,161.95058828809888L492.9500312879954,215.12172742355799L493.3443100202428,210.66094739793533L493.7385887524902,105.73302513375654L494.1328674847377,259.9812089342588L494.5271462169851,176.61758360252927L495.1185643153563,243.19113555294325L495.5128430476037,222.19350745725535L495.9071217798512,179.7365782898805L496.30140051209855,74.03971575129536L496.695679244346,-181.1033140146919L497.08995797659344,189.59229269055527L499.0613516378307,201.0800751033737L499.8499091023255,114.58664668686153L500.6384665668204,246.46453591788617L500.8356059329441,237.07203854998633L501.0327452990678,252.71487774679593L501.4270240313153,300.25947399081554L502.0184421296864,192.17549967666352L502.6098602280575,234.8655814172017L503.00413896030494,218.5294607280056L503.59555705867615,239.0175500876411L504.77839325541845,206.55838854432528L505.17267198766586,219.99013843802254L505.5669507199133,194.70466467561462L505.764090086037,164.47975328705002L506.35550818440817,203.23249024900127L506.5526475505319,219.9376405076414L506.74978691665564,194.2136546208732L507.3412050150268,143.93298976992972L508.9183199440165,160.5532169058945L509.9040167746351,241.95125796188233L510.29829550688254,239.00365357665783L511.48113170362484,233.40490370718473L512.2696891681197,223.1569988854272L512.4668285342434,96.54588731705363L512.6639679003671,197.4113962037962L512.8611072664909,195.5446315617132L514.0439434632332,154.45264858424852L514.6353615616043,171.8526243920511L516.0153371244703,224.39687647648813L516.4096158567178,220.68341993040906L517.0010339550889,152.7510980171886L517.1981733212126,229.21433361734748L517.7895914195838,195.76234356711743L518.9724276163261,212.68057366083406L519.3667063485735,167.43816606970594L519.9581244469447,80.11094699419886L520.5495425453158,208.2522188275057L520.7466819114395,262.24634022452824L520.9438212775632,282.8625862965648L521.140960643687,193.9017551521381L521.3381000098107,191.39266289127386L522.520936206553,229.86592557678424L523.7037724032953,260.17267197447245L524.8866086000377,178.92749253930026L526.06944479678,216.37395746882623L527.0551416273985,153.7269418995678L527.8436990918934,204.33031461667784L529.2236746547594,190.52953515353656L529.6179533870069,131.46627536118027L530.2093714853779,260.91073111336055L530.6036502176254,190.32880777266743L530.8007895837492,107.4824414608699L531.3922076821202,251.30360985360832L531.589347048244,179.33666758491816L531.9836257804915,189.52589824919085L532.1807651466152,230.6703791570367L532.7721832449863,208.51007630908367L536.1235524690894,209.86112598801057L536.3206918352132,238.79057374158134L536.5178312013369,187.06003957805228L537.5035280319556,-15.612852828741929L538.0949461303267,195.16479359483773L538.8835035948216,175.2510933558432L539.0806429609453,200.71413364748153L539.277782327069,178.91668414186887L540.0663397915639,229.45211836083863L540.2634791576876,236.04060862367413L540.4606185238114,222.3803383271412L540.8548972560587,164.06594607110443L541.6434547205536,297.2269464829156L542.037733452801,200.94265405031712L543.6148483817908,188.40954520020327L544.6005452124093,189.6432465641605L544.7976845785331,260.5787589065385L546.5719388736466,-215.82915090505307L546.7690782397704,182.29044819724635L548.9376112671312,215.77331938299474L550.5147261961208,269.8925093788666L550.7118655622446,204.19443762039722L551.3032836606158,234.3004566372163L551.6975623928631,195.60484977597395L551.8947017589869,152.62602941833939L553.4718166879766,237.96604742324197L553.6689560541004,111.31942254902229L553.866095420224,150.73147175428988L554.6546528847189,255.5157967383084L555.0489316169663,189.71427317585264L555.4432103492138,175.20322759578977L557.0203252782036,198.23746657891152L558.0060221088221,230.51906159299688L558.2031614749459,195.32383144275718L558.794579573317,178.13384735647924L560.174555136183,-180.90567474737463L560.5688338684305,258.09282749731295L562.5402275296676,235.67003499745417L563.5259243602862,217.34980135120546L563.72306372641,122.17722979726685L564.1173424586574,304.9719352709126L564.3144818247811,222.14409764042603L565.4973180215235,264.19030770540706L566.8772935843895,272.41858626426585L567.0744329505133,178.9367568799558L568.8486872456266,-136.82439785173568L569.6372447101215,187.24069422083448L570.031523442369,236.27993742394116L570.8200809068637,218.7023950869082L572.5943352019773,207.08491190491284L572.9886139342248,247.5114064119575L573.5800320325958,203.3652791317301L573.9743107648433,253.03604155618658L574.171450130967,291.90921494665935L575.1571469615856,256.2322390823337L575.7485650599567,194.96097810041678L576.7342618905752,226.71450569713875L577.1285406228227,224.270263820863L578.311376819565,228.60906336118822L578.5085161856888,64.9266926598364L578.7056555518125,267.03137217309336L579.4942130163074,53.965433607605505L580.4799098469259,232.2561254659029L581.0713279452972,201.16808633960093L581.4656066775445,297.699427856346L582.0570247759157,262.39765778856804L582.6484428742867,143.51455038365637L583.4370003387817,265.20166489363237L584.8169759016477,138.9950962005489L585.0141152677714,203.5304932067531L585.2112546338951,203.10124542304837L586.5912301967612,219.82338030622356L586.9855089290087,175.65718028790926L587.379787661256,278.60716582213905L587.9712057596272,246.60504508449455L588.1683451257509,242.050077595541L589.3511813224932,190.7951129189942L589.548320688617,189.93198518125686L591.1254356176066,203.59534359134165L591.7168537159779,188.25050735228388L591.9139930821016,104.57807066537104L592.1111324482252,-245.4225430722679L592.3082718143489,192.8409881470835L592.7025505465964,177.5193127596645L593.2939686449677,239.96405689127786L594.6739442078336,217.07804735864414L594.8710835739573,-231.8379315577549L595.8567804045759,213.99919814746673L596.2510591368234,204.99889120064967L596.4481985029471,54.71430114392497L596.6453378690707,130.88571001343564L598.4195921641842,193.11737430997255L599.2081496286792,194.03763214841877L599.6024283609265,139.67448118195213L599.7995677270502,182.80925127395426L600.1938464592977,177.28770424327703L601.1795432899163,195.85961914400016L601.37668265604,215.36105622382502L601.7709613882874,235.73642943881862L601.9681007544111,264.9793207179004L602.1652401205348,284.31245560915033L602.7566582189061,156.67300222801643L603.1509369511534,193.83844882432552L603.5452156834009,213.06349974126135L605.3194699785143,261.2365270930789L605.9108880768855,232.47229341453124L607.685142371999,246.3487316596924L608.8679785687413,215.24061979530356L609.0651179348649,174.4636244001258L610.2479541316073,239.1426186864903L610.445093497731,236.17030939285112L610.6422328638547,247.3014146904329L612.2193477928444,234.6988232854027L613.4021839895868,216.37241341205026L613.5993233557106,195.21420341166709L615.1764382847002,192.15542693857657L615.3735776508239,211.65840807517736L615.964995749195,181.88744937873216L616.5564138475663,224.02321473671637L617.344971312061,191.6319916915409L617.7392500443085,141.45323458780788L618.5278075088033,159.54340377444512L619.7106437055457,223.79160622032887L620.4992011700406,166.89311402780746L620.6963405361643,193.8863145843789L621.2877586345355,287.3110138679801L622.273455465154,232.87529223304537L623.0620129296489,238.51881974902008L623.8505703941438,224.4586387475248L624.2448491263913,213.1144536148666L625.6248246892573,220.43173867593467L626.0191034215047,246.50622545083587L626.2162427876283,246.96017814295536L627.3990789843707,237.39474641615288L627.5962183504945,243.18187121228775L627.7933577166181,200.51031815306055L628.1876364488655,179.3150507900553L628.581915181113,189.82081309339088L630.9475875745976,190.86768358746227L632.721841869711,174.85272670765676L633.510399334206,267.09313444413L634.4960961648245,197.88233352045071L634.6932355309482,173.4399147576932L635.6789323615668,232.81198590523283L635.8760717276905,198.02129863028324L636.0732110938143,282.42561822898045L636.8617685583092,239.34025795380762L637.0589079244328,-229.01693982815553L638.2417441211752,205.11160734529162L639.03030158567,211.38356596906422L639.2274409517937,198.58951152382045L639.4245803179175,210.2656688633007L639.818859050165,193.13435893450765L640.0159984162887,221.69168900508254L641.0016952469072,245.30340522239698L641.5931133452784,225.87145069748834L641.9873920775258,198.32393375836284L642.5788101758969,133.1770902688957L643.1702282742681,248.34828518450422L643.7616463726392,226.98934780325186L644.1559251048867,79.90404338622605L645.5359006677527,264.58867435359355L645.9301794000002,208.40353639154546L646.3244581322476,196.80921406118875L648.2958517934848,181.42886451628496L648.4929911596084,195.35008040794776L648.6901305257321,205.29380604484973L651.4500816514642,264.95770392303757L652.2386391159591,240.40256901563816L653.027196580454,255.22705812121205L653.2243359465776,252.80906521012685L653.8157540449489,234.84242056556297L654.0128934110726,151.86326537103665L654.6043115094436,183.0995339478266L654.9985902416911,177.8590052503661L655.3928689739386,205.55938381030737L656.3785658045572,217.00393263340013L656.9699839029283,198.46598698174714L657.3642626351757,274.9276785251301L657.9556807335468,250.26600370019247L658.5470988319181,191.8481596401692L659.1385169302891,211.89001659156483L659.5327956625366,233.99164528203298L660.1242137609079,228.0717316031693L660.7156318592789,189.0318000808976L660.9127712254026,269.5111273552152L661.5041893237739,183.1396794240004L662.0956074221449,138.12424817893202L663.8698617172583,252.92950163864833L664.2641404495058,207.89399765549308L665.2498372801244,264.3339049855673L666.2355341107431,176.20995261368734L666.4326734768667,263.90928937219024L666.6298128429904,142.35187563139127L667.0240915752379,129.8203108380533L667.2212309413616,87.04221786128787L667.615509673609,225.13802372892803L668.0097884058565,237.99075233165664L668.6012065042277,209.54305029217184L668.7983458703513,258.78610898969947L669.5869033348463,253.6783691749678L670.5726001654648,248.80223787662365L670.9668788977123,214.5411620758134L672.3468544605782,166.3418857588053L672.7411331928257,170.68222935590643L672.9382725589494,246.6220297090296L673.5296906573205,239.30320059118563L673.923969389568,113.41007542361321L674.7125268540628,193.20538554619978L675.303944952434,218.83981613996482L675.6982236846815,199.2966895271902L676.0925024169288,197.44382139609044L676.2896417830526,189.9242648973773L676.4867811491763,172.64318146132032L677.2753386136712,230.06510890087748L678.0638960781661,170.1340892004561L678.2610354442897,239.02681442829657L678.4581748104135,189.45795975105054L679.2467322749084,190.64379535495434L679.443871641032,247.55309594490726L679.8381503732795,213.2966523144247L680.0352897394033,176.8553683460204L680.4295684716508,136.5925438572229L680.6267078377743,270.66299371004885L680.823847203898,190.86613953068635L681.2181259361455,259.1427861049362L681.4152653022693,256.96412199411805L681.8095440345168,256.94559331280703L682.7952408651353,201.28852276812245L682.9923802312591,272.06654131935693L684.1752164280012,213.77530991495883L684.372355794125,163.67221159324572L684.5694951602487,303.31207423680235L685.3580526247436,153.2390199583782L685.752331356991,209.45195094239273L686.1466100892385,266.2191983089613L686.9351675537333,223.05817925176854L688.9065612149706,179.5265865683559L689.3008399472179,105.69442371435863L689.6951186794654,206.58000533918812L689.8922580455891,147.4040294021899L690.680815510084,224.02630285026817L691.0750942423315,145.78431384425355L691.2722336084552,-192.66829926630615L691.4693729745788,282.6325218369533L692.06079107295,181.24512175995088L692.8493485374449,233.59482269062246L693.0464879035685,228.25547435950335L693.6379060019398,198.40268065393457L694.2293241003109,243.76552467358417L696.200717761548,230.91125201407965L696.3978571276717,233.28446727866324L696.989275226043,205.41115435981936L697.1864145921667,90.82361290550723L697.5806933244141,100.2022137624238L698.1721114227852,234.07039217760476L698.5663901550327,236.57330821136532L698.7635295211564,215.7702312694429L699.1578082534039,255.29036444902465L699.3549476195275,192.5754103816259L699.5520869856513,196.9620756820045L699.749226351775,187.11871373553709L700.1435050840224,234.6139001627273L700.5377838162699,277.148032168898L700.7349231823937,171.89585798177677L701.5234806468884,221.24700065361853L701.7206200130122,225.18897760253327L702.1148987452597,171.02655401693582L702.7063168436307,78.18396413785513L703.6920136742494,219.22274222039206L706.0576860677339,182.03413477244422L706.8462435322289,308.41518188120625L707.4376616305999,280.31643667307856L708.4233584612186,235.41217751587612L708.817637193466,175.7745286028789L709.4090552918371,198.8118556995524L710.5918914885794,274.3270404392986L710.7890308547031,215.2823093282533L711.1833095869506,215.90765232249942L711.7747276853217,199.6827037211693L712.3661457836929,212.24823776357744L712.5632851498166,226.4782650104235L712.7604245159404,274.05837456028917L714.5346788110538,191.2305369298026L714.7318181771775,152.44846288910898L714.9289575433012,132.65674313541183L715.126096909425,273.210687390311L715.5203756416723,228.3836310719044L715.9146543739198,175.9134937127114L716.506072472291,221.73183448125633L717.4917693029096,206.07355471668754L717.8860480351569,193.5280934123663L718.0831874012807,295.6041428114274L718.2803267674044,234.1151698241063L718.4774661335281,207.30416796709292L720.0545810625179,223.76535725513827L721.8288353576313,244.1453626404596L722.8145321882499,177.1549153605482L724.3916471172396,219.14708343837216L724.5887864833634,245.672434791841L725.1802045817345,232.86293977883804L725.9687620462294,211.37121351485692L727.3487376090953,258.7243467186628L727.9401557074666,288.274505296152L728.5315738058378,231.14594864401897L728.7287131719614,204.0740011918757L728.9258525380851,291.841276448519L729.3201312703326,264.76932899637575L730.8972461993224,152.1010501145278L731.2915249315698,254.64340465991563L731.6858036638173,198.32393375836284L732.0800823960647,210.6501390005039L734.0514760573018,157.73994546017468L735.6285909862916,133.35002462779835L735.8257303524152,219.93455239408954L736.022869718539,219.97933004059115L736.8114271830339,169.6168301805241L737.9942633797763,244.00639753062714L739.5713783087659,230.23804325978006L740.7542145055082,223.43338504831627L740.951353871632,235.62680140772852L741.1484932377556,194.16270074726796L741.3456326038794,241.73817812680585L741.7399113361267,211.4051827639271L742.1341900683742,219.6319172660099L742.7256081667454,173.8784268820535L743.9084443634878,217.38222654349963L744.3027230957351,256.761850556473L745.6826986586012,267.665979507995L746.471256123096,235.61908112384893L746.8655348553435,149.8158460861714L747.6540923198382,232.01525260885995L747.851231685962,229.70843178564076L748.2455104182095,231.90716863454577L749.231207248828,227.45102077925085L749.8226253471993,163.98719917553268L750.2169040794466,177.42512529633356L750.8083221778178,290.8376395441733L751.0054615439415,150.637284290959L751.2026009100653,235.67929933810967L753.1739945713024,211.50400239758574L753.3711339374262,156.69153090932738L753.7654126696735,214.43616621505106L753.9625520357972,163.58574441379437L754.159691401921,170.34253686520483L754.3568307680447,162.69327959731467L755.1453882325395,268.7915968976381L755.539666964787,137.9080802303037L756.1310850631581,214.12735485986778L756.5253637954056,111.7409500488475L756.919642527653,281.67520663588505L757.3139212599004,199.97916262214525L759.0881755550139,232.0770148798966L759.8767330195087,248.3930628310058L760.2710117517562,219.06833654280044L760.6652904840037,189.31436247089027L761.0595692162511,214.36668366013487L761.6509873146223,211.99192433877528L762.2424054129934,261.08984169936684L763.4252416097357,272.20705048596534L763.6223809758594,166.29556405552776L764.4109384403544,158.75747887550364L765.0023565387254,249.99116159407933L765.5937746370967,160.89908562369976L765.9880533693441,187.86449315830475L766.1851927354677,-251.1293769160551L766.9737501999626,168.08358180203902L767.7623076644575,158.16147295999986L768.3537257628286,259.8406997676504L768.5508651289524,231.366748762975L768.7480044950761,225.85137795940145L768.9451438611999,227.31823189652206L769.5365619595709,214.36977177368664L770.3251194240659,118.95169519237737L771.5079556208082,277.78418356057557L771.7050949869318,161.05657941484324L772.296513085303,202.05437492897698L773.2822099159216,197.8514523849324L773.8736280142926,197.5982270736821L774.0707673804164,172.09195319231816L774.4650461126639,215.60656125119573L774.8593248449114,193.92028383344908L775.2536035771589,210.333607361441L775.4507429432824,257.2482284408867L776.0421610416537,212.25750210423297L776.2393004077774,219.31384157017118L776.6335791400248,189.2587764269573L777.2249972383959,237.93516628772366L777.4221366045197,272.3336631415905L777.8164153367671,187.24069422083448L778.9992515335094,215.39193735934333L779.5906696318806,233.17329519079726L780.1820877302516,275.3785431036977L780.3792270963754,263.9818600406584L781.1677845608704,217.34980135120546L782.3506207576125,271.7407453396385L784.9134325172209,153.44746762312695L785.7019899817158,136.06447643985948L786.0962687139632,162.0108065023596L787.0819655445819,248.95973166776713L787.673383642953,143.29375026470032L788.0676623752004,149.4576249141588L788.8562198396953,154.7475634284486L789.8419166703138,180.45302063390577L790.6304741348088,189.15841273652276L791.4190315993036,104.1040452351647L792.0104496976747,199.8309331716573L794.9675401895305,200.90714074447106L796.9389338507677,234.933519915342L797.1360732168913,192.52754462157245L797.3332125830151,155.22930914253453L797.9246306813862,176.64537662449575L798.12177004751,221.22847197230757L799.1074668781285,116.54605473549954L800.2903030748708,236.744698513492L800.4874424409945,215.07077354995275L800.6845818071183,280.0107134314471L800.881721173242,188.81563213226926L801.0788605393658,293.92266498245436L801.2759999054895,148.18532213080366L801.4731392716133,165.17612289298836L803.0502542006029,225.0036907894233L807.5844596214484,239.4143726790516L807.7815989875722,239.30937681828925L807.9787383536958,253.89144901004428L809.3587139165619,183.62142513808635L810.3444107471805,162.6593103482445L810.9358288455517,224.18688475496347L811.5272469439227,254.3793709512339L811.7243863100465,209.68510351555614L811.9215256761702,157.95920152235482L812.710083140665,162.575931282345L814.2871980696548,241.37841289801736L814.4843374357785,241.62082981183624L815.0757555341497,184.76711526581633L815.4700342663972,254.03659034698046L815.6671736325209,167.98167405482852L816.0614523647682,167.4335338993782L818.427124758253,117.26404113630069L818.8214034905004,164.9028248436511L819.4128215888715,132.40351782416153L819.8071003211189,270.9440120432656L820.7927971517374,217.081135472196L821.3842152501087,237.70355777133614L821.9756333484797,143.86505127178938L823.7498876435932,249.0878883801682L823.947027009717,270.72475598108554L825.1298632064593,249.10178489115142L825.5241419387067,167.03207913763993L825.7212813048304,198.2714358279817L826.9041175015727,185.93596624518509L827.4955355999439,185.69972555846988L827.6926749660677,237.06586232288268L828.6783717966862,204.59589238213547L829.0726505289337,248.01476892090625L829.4669292611811,138.63687502853625L830.0583473595522,270.2738914025179L830.255486725676,281.6041800241929L831.8326016546656,186.3930070508564L832.8182984852843,215.0954784583674L833.2125772175317,191.71228264388856L833.4097165836554,195.90748490405358L833.6068559497792,191.0606906844518L834.3954134142739,204.2067900746045L835.7753889771401,246.50468139406L836.5639464416349,185.17165814110643L837.1553645400061,192.62945236878292L837.3525039061298,269.35517762084766L837.7467826383771,193.6655144654229L839.3238975673669,202.40024364678226L840.3095943979855,208.82351983459478L842.6752667914701,139.80418195112912L843.6609636220887,259.45931774399907L844.0552423543361,173.24536360392776L844.2523817204599,295.7508282051395L844.843799818831,202.45428563393935L845.0409391849548,224.42466949845462L846.8151934800683,179.63621459944594L847.9980296768106,139.75168402074794L848.7865871413054,257.0320604922584L849.772283971924,226.2312159262769L850.1665627041714,258.7228026618869L850.5608414364189,221.92638563502183L850.9551201686663,206.5105227842719L851.3493989009138,208.8296960616984L851.9408169992848,227.5652809806687L852.1379563654085,236.2428800613192L852.3350957315323,202.3477457164011L852.9265138299035,145.3936674799467L853.1236531960271,218.4460816621061L853.3207925621508,201.76100414155283L853.5179319282746,262.7481586767011L854.1093500266458,141.51962902917228L854.3064893927695,216.66732825625033L854.5036287588932,286.35061055336007L855.0950468572643,209.84259730669962L855.2921862233881,316.15399444209953L855.6864649556355,228.86228867243852L855.8836043217592,213.70428330326666L856.672161786254,194.92237668101887L857.0664405185015,-259.22641064896095L857.2635798846253,249.90778252817984L857.460719250749,142.1418839098666L858.2492767152438,198.3594470642089L858.6435554474913,230.32605449600732L859.0378341797388,114.17592758446774L859.6292522781098,248.45328104526652L861.4035065732232,224.3474666596588L861.9949246715945,239.1024732103165L862.3892034038419,219.33237025148216L862.7834821360893,217.6184672302149L863.1777608683368,200.982799526491L863.5720396005842,192.75915313795994L864.1634576989553,243.0058487398333L865.3462938956977,213.8880260596007L866.1348513601926,248.24637743729375L866.5291300924399,171.67351380604478L867.1205481908111,134.94812339087187L867.909105655306,206.0256889566341L868.6976631198008,165.92653448608374L869.4862205842957,201.3116836197612L870.2747780487905,183.5272376747554L871.4576142455329,244.1237458455968L872.0490323439041,258.42788781768684L872.8375898083989,169.72491415483825L873.2318685406464,222.5748894809067L874.0204260051412,222.45445305238525L874.217565371265,157.6673747917066L875.597540934131,239.74943299942547L876.1889590325021,169.53653922817642L876.3860983986258,-164.2236853403732L877.3717952292444,229.65284574170775L877.5689345953682,172.23863858603025L877.7660739614919,227.5174152206153L878.1603526937392,153.06299748592372L878.7517707921104,264.3076560203767L879.737467622729,149.29704300946352L880.3288857211002,196.66561678102855L880.526025087224,245.5504543065436L880.9203038194713,248.70341824296503L882.1031400162136,179.74275451698418L884.0745336774509,211.49164994337838L885.4545092403168,166.1766716837822L886.045927338688,201.78725310674344L886.2430667048117,239.0777683019018L887.6230422676776,131.02313106649223L887.8201816338014,256.08246557506976L888.0173209999251,195.89822056339807L888.2144603660489,81.85264303743264L888.4115997321726,236.66903973147214L889.2001571966674,185.20717144695251L889.7915752950386,226.52767482725284L891.9601083223995,238.93108290818975L894.3257807158841,225.21213845417202L894.5229200820079,184.73005790319434L894.7200594481316,158.2849975020732L895.1143381803789,159.4939939576158L895.5086169126264,235.7070923600762L896.494313743245,176.80287041563923L897.0857318416162,151.53901344809418L897.2828712077398,247.36626507502135L897.6771499399873,192.0133737151923L897.8742893061111,221.10494743023423L899.2542648689771,150.8858774318815L899.6485436012246,280.45540178291105L900.0428223334719,187.94169599710057L901.6199372624616,179.35210815267732L901.8170766285854,230.71206868998644L902.8027734592039,159.212975624399L902.9999128253277,171.32301291791177L904.18274902207,175.39005846567568L904.5770277543173,223.93211538693728L904.9713064865648,222.84355535991617L905.3655852188123,191.778677085253L906.1541426833071,159.96956344459807L906.7455607816784,195.94299820989966L907.1398395139257,187.96640090551523" style="fill: none;" fill="none"></path></g></g></g></g></g></g><g transform="translate(63, 376)" clip-path="url(#clip_1)"><clipPath id="clip_1"><rect width="2081" height="24"></rect></clipPath><g><g><line x1="60.62340137868303" y1="0" x2="60.62340137868303" y2="5" style="visibility: inherit;" fill="rgb(0, 0, 0)" stroke="rgb(204, 204, 204)" stroke-width="1px"></line><line x1="257.7627675024005" y1="0" x2="257.7627675024005" y2="5" style="visibility: inherit;" fill="rgb(0, 0, 0)" stroke="rgb(204, 204, 204)" stroke-width="1px"></line><line x1="454.9021336261179" y1="0" x2="454.9021336261179" y2="5" style="visibility: inherit;" fill="rgb(0, 0, 0)" stroke="rgb(204, 204, 204)" stroke-width="1px"></line><line x1="652.0414997498353" y1="0" x2="652.0414997498353" y2="5" style="visibility: inherit;" fill="rgb(0, 0, 0)" stroke="rgb(204, 204, 204)" stroke-width="1px"></line><line x1="849.1808658735528" y1="0" x2="849.1808658735528" y2="5" style="visibility: inherit;" fill="rgb(0, 0, 0)" stroke="rgb(204, 204, 204)" stroke-width="1px"></line><line x1="1046.3202319972702" y1="0" x2="1046.3202319972702" y2="5" style="visibility: inherit;" fill="rgb(0, 0, 0)" stroke="rgb(204, 204, 204)" stroke-width="1px"></line><line x1="1243.4595981209877" y1="0" x2="1243.4595981209877" y2="5" style="visibility: inherit;" fill="rgb(0, 0, 0)" stroke="rgb(204, 204, 204)" stroke-width="1px"></line><line x1="1440.598964244705" y1="0" x2="1440.598964244705" y2="5" style="visibility: inherit;" fill="rgb(0, 0, 0)" stroke="rgb(204, 204, 204)" stroke-width="1px"></line><line x1="1637.7383303684223" y1="0" x2="1637.7383303684223" y2="5" style="visibility: inherit;" fill="rgb(0, 0, 0)" stroke="rgb(204, 204, 204)" stroke-width="1px"></line><line x1="1834.8776964921399" y1="0" x2="1834.8776964921399" y2="5" style="visibility: inherit;" fill="rgb(0, 0, 0)" stroke="rgb(204, 204, 204)" stroke-width="1px"></line><line x1="2032.0170626158572" y1="0" x2="2032.0170626158572" y2="5" style="visibility: inherit;" fill="rgb(0, 0, 0)" stroke="rgb(204, 204, 204)" stroke-width="1px"></line></g><g transform="translate(0, 8)"><text x="60.62340137868303" y="0" dx="0em" dy="0.95em" style="text-anchor: middle; visibility: inherit; font-family: Roboto, sans-serif; font-size: 12px; font-weight: 200;" fill="rgb(33, 33, 33)" stroke="none" stroke-width="1px">-1k</text><text x="257.7627675024005" y="0" dx="0em" dy="0.95em" style="text-anchor: middle; visibility: inherit; font-family: Roboto, sans-serif; font-size: 12px; font-weight: 200;" fill="rgb(33, 33, 33)" stroke="none" stroke-width="1px">0</text><text x="454.9021336261179" y="0" dx="0em" dy="0.95em" style="text-anchor: middle; visibility: inherit; font-family: Roboto, sans-serif; font-size: 12px; font-weight: 200;" fill="rgb(33, 33, 33)" stroke="none" stroke-width="1px">1k</text><text x="652.0414997498353" y="0" dx="0em" dy="0.95em" style="text-anchor: middle; visibility: inherit; font-family: Roboto, sans-serif; font-size: 12px; font-weight: 200;" fill="rgb(33, 33, 33)" stroke="none" stroke-width="1px">2k</text><text x="849.1808658735528" y="0" dx="0em" dy="0.95em" style="text-anchor: middle; visibility: inherit; font-family: Roboto, sans-serif; font-size: 12px; font-weight: 200;" fill="rgb(33, 33, 33)" stroke="none" stroke-width="1px">3k</text><text x="1046.3202319972702" y="0" dx="0em" dy="0.95em" style="text-anchor: middle; visibility: inherit; font-family: Roboto, sans-serif; font-size: 12px; font-weight: 200;" fill="rgb(33, 33, 33)" stroke="none" stroke-width="1px">4k</text><text x="1243.4595981209877" y="0" dx="0em" dy="0.95em" style="text-anchor: middle; visibility: inherit; font-family: Roboto, sans-serif; font-size: 12px; font-weight: 200;" fill="rgb(33, 33, 33)" stroke="none" stroke-width="1px">5k</text><text x="1440.598964244705" y="0" dx="0em" dy="0.95em" style="text-anchor: middle; visibility: inherit; font-family: Roboto, sans-serif; font-size: 12px; font-weight: 200;" fill="rgb(33, 33, 33)" stroke="none" stroke-width="1px">6k</text><text x="1637.7383303684223" y="0" dx="0em" dy="0.95em" style="text-anchor: middle; visibility: inherit; font-family: Roboto, sans-serif; font-size: 12px; font-weight: 200;" fill="rgb(33, 33, 33)" stroke="none" stroke-width="1px">7k</text><text x="1834.8776964921399" y="0" dx="0em" dy="0.95em" style="text-anchor: middle; visibility: inherit; font-family: Roboto, sans-serif; font-size: 12px; font-weight: 200;" fill="rgb(33, 33, 33)" stroke="none" stroke-width="1px">8k</text><text x="2032.0170626158572" y="0" dx="0em" dy="0.95em" style="text-anchor: middle; visibility: inherit; font-family: Roboto, sans-serif; font-size: 12px; font-weight: 200;" fill="rgb(33, 33, 33)" stroke="none" stroke-width="1px">9k</text></g><line x1="0" y1="0" x2="2081.015625" y2="0" fill="rgb(0, 0, 0)" stroke="rgb(204, 204, 204)" stroke-width="1px"></line></g></g></g></g></svg>